<?xml version="1.0" encoding="utf-8"?>
<!-- Generator: Adobe Illustrator 16.0.0, SVG Export Plug-In . SVG Version: 6.00 Build 0)  -->
<!DOCTYPE svg PUBLIC "-//W3C//DTD SVG 1.1//EN" "http://www.w3.org/Graphics/SVG/1.1/DTD/svg11.dtd">
<svg version="1.1" xmlns="http://www.w3.org/2000/svg" xmlns:xlink="http://www.w3.org/1999/xlink" x="0px" y="0px" width="150px"
	 height="250px" viewBox="0 0 150 250" enable-background="new 0 0 150 250" xml:space="preserve">
<g id="mlx">
	<g id="logo_x5F_square_x5F_blue-bg">
		<g id="op3_1_" display="none">
		</g>
		<g id="op4_1_" display="none">
		</g>
		<g id="op2_1_" display="none">
		</g>
		<g id="op1_1_">
			<g id="m">
			</g>
		</g>
	</g>
	<g id="favicon_x5F_square_x5F_blue_x5F_bg">
		<rect id="bg_23_" fill="#FFFFFF" width="150" height="250"/>
		<g>
			<g>
				<g>
					<path fill="#2C95DD" d="M5.053,4.604h14.508v4.951h-9.484v4.805h9.484v4.86h-9.484v6.991h9.484v4.969H5.053V4.604z"/>
				</g>
				<g>
					<path fill="#2C95DD" d="M48.701,9.274l-3.538,3.373c-2.406-2.544-5.114-3.815-8.123-3.815c-2.539,0-4.678,0.867-6.417,2.604
						c-1.738,1.736-2.607,3.876-2.607,6.42c0,1.772,0.385,3.346,1.154,4.721c0.771,1.374,1.859,2.453,3.268,3.236
						c1.408,0.784,2.973,1.176,4.693,1.176c1.468,0,2.81-0.273,4.025-0.822c1.215-0.549,2.551-1.547,4.007-2.994l3.43,3.579
						c-1.963,1.917-3.818,3.245-5.564,3.985c-1.746,0.741-3.739,1.111-5.979,1.111c-4.132,0-7.514-1.31-10.145-3.929
						c-2.632-2.62-3.947-5.978-3.947-10.072c0-2.649,0.599-5.005,1.797-7.063c1.198-2.061,2.915-3.716,5.149-4.969
						c2.233-1.252,4.64-1.879,7.218-1.879c2.191,0,4.302,0.463,6.332,1.389C45.482,6.25,47.231,7.567,48.701,9.274z"/>
				</g>
				<g>
					<path fill="#2C95DD" d="M67.075,8.217l-3.746,3.307c-1.315-1.83-2.655-2.746-4.019-2.746c-0.664,0-1.206,0.178-1.629,0.533
						c-0.422,0.355-0.634,0.756-0.634,1.201s0.151,0.867,0.453,1.265c0.41,0.53,1.646,1.669,3.71,3.415
						c1.93,1.613,3.101,2.631,3.511,3.053c1.025,1.036,1.752,2.026,2.181,2.972c0.429,0.946,0.643,1.979,0.643,3.099
						c0,2.18-0.754,3.98-2.261,5.402c-1.507,1.421-3.473,2.131-5.896,2.131c-1.894,0-3.542-0.463-4.947-1.391
						c-1.404-0.928-2.607-2.385-3.608-4.372l4.253-2.565c1.278,2.349,2.75,3.523,4.415,3.523c0.868,0,1.598-0.254,2.189-0.76
						c0.591-0.506,0.887-1.09,0.887-1.752c0-0.602-0.224-1.204-0.67-1.807c-0.446-0.602-1.43-1.523-2.95-2.764
						c-2.896-2.361-4.766-4.183-5.61-5.466c-0.845-1.282-1.267-2.562-1.267-3.839c0-1.843,0.702-3.424,2.107-4.742
						c1.404-1.319,3.138-1.979,5.2-1.979c1.326,0,2.59,0.307,3.789,0.922C64.377,5.471,65.676,6.592,67.075,8.217z"/>
				</g>
			</g>
		</g>
		<g>
			<path fill="#636363" d="M8.443,229.724v1.113c0.457-0.458,0.952-0.801,1.484-1.029c0.531-0.229,1.101-0.344,1.707-0.344
				c1.316,0,2.437,0.498,3.357,1.494c0.922,0.995,1.383,2.272,1.383,3.831c0,1.503-0.477,2.76-1.429,3.771
				c-0.952,1.011-2.081,1.517-3.386,1.517c-0.582,0-1.123-0.104-1.624-0.311s-0.999-0.546-1.493-1.016v4.759H5.929v-13.786H8.443z
				 M11.105,231.802c-0.798,0-1.46,0.272-1.985,0.816s-0.788,1.256-0.788,2.134c0,0.896,0.263,1.622,0.788,2.176
				s1.188,0.83,1.985,0.83c0.773,0,1.424-0.281,1.953-0.845c0.528-0.562,0.793-1.279,0.793-2.152c0-0.865-0.26-1.575-0.779-2.129
				C12.553,232.079,11.897,231.802,11.105,231.802z"/>
			<path fill="#636363" d="M18.193,225.827h2.533v13.99h-2.533V225.827z"/>
			<path fill="#636363" d="M23.018,229.724h2.561v4.861c0,0.946,0.064,1.604,0.194,1.972c0.131,0.368,0.34,0.653,0.628,0.858
				c0.288,0.203,0.644,0.306,1.065,0.306c0.421,0,0.779-0.101,1.074-0.302c0.294-0.2,0.513-0.496,0.655-0.886
				c0.105-0.291,0.158-0.912,0.158-1.864v-4.945h2.533v4.277c0,1.762-0.14,2.969-0.418,3.617c-0.34,0.792-0.841,1.4-1.503,1.823
				c-0.662,0.424-1.503,0.636-2.523,0.636c-1.107,0-2.003-0.247-2.686-0.742c-0.684-0.495-1.165-1.185-1.442-2.068
				c-0.198-0.613-0.297-1.727-0.297-3.34V229.724z"/>
			<path fill="#636363" d="M41.888,229.724h2.523v8.646c0,1.707-0.343,2.963-1.03,3.767c-0.921,1.089-2.31,1.633-4.165,1.633
				c-0.989,0-1.821-0.124-2.495-0.371c-0.675-0.247-1.244-0.611-1.707-1.09c-0.465-0.479-0.808-1.062-1.03-1.749h2.792
				c0.248,0.284,0.566,0.499,0.956,0.645s0.851,0.219,1.382,0.219c0.681,0,1.229-0.105,1.643-0.316
				c0.414-0.21,0.706-0.482,0.877-0.816c0.17-0.334,0.255-0.908,0.255-1.725c-0.445,0.445-0.912,0.765-1.401,0.96
				c-0.488,0.194-1.042,0.292-1.66,0.292c-1.354,0-2.499-0.488-3.433-1.466s-1.401-2.214-1.401-3.711
				c0-1.602,0.495-2.889,1.484-3.859c0.897-0.878,1.967-1.317,3.211-1.317c0.581,0,1.13,0.106,1.646,0.32
				c0.516,0.213,1.034,0.564,1.554,1.053V229.724z M39.262,231.829c-0.797,0-1.456,0.269-1.976,0.803
				c-0.52,0.535-0.779,1.208-0.779,2.018c0,0.842,0.266,1.531,0.798,2.069s1.2,0.808,2.004,0.808c0.785,0,1.434-0.264,1.943-0.789
				c0.511-0.525,0.766-1.215,0.766-2.068c0-0.842-0.257-1.525-0.77-2.051C40.734,232.093,40.072,231.829,39.262,231.829z"/>
			<path fill="#636363" d="M47.96,225.567c0.443,0,0.824,0.161,1.143,0.482c0.317,0.321,0.476,0.711,0.476,1.169
				c0,0.451-0.157,0.837-0.472,1.155s-0.69,0.478-1.128,0.478c-0.45,0-0.835-0.162-1.152-0.487
				c-0.317-0.324-0.477-0.719-0.477-1.183c0-0.445,0.157-0.825,0.473-1.142C47.137,225.726,47.516,225.567,47.96,225.567z
				 M46.693,229.724h2.533v10.094h-2.533V229.724z"/>
			<path fill="#636363" d="M51.526,229.724h2.532v1.034c0.575-0.484,1.095-0.82,1.562-1.01c0.466-0.189,0.943-0.284,1.432-0.284
				c1,0,1.85,0.35,2.547,1.049c0.587,0.594,0.88,1.472,0.88,2.635v6.67h-2.504v-4.42c0-1.205-0.055-2.005-0.162-2.4
				c-0.108-0.396-0.297-0.696-0.565-0.903s-0.6-0.311-0.994-0.311c-0.513,0-0.952,0.172-1.319,0.515s-0.621,0.816-0.764,1.422
				c-0.074,0.315-0.111,0.998-0.111,2.048v4.05h-2.532V229.724z"/>
		</g>
		<g id="blocks_34_">
			<rect x="77" y="117" fill="#2C95DD" width="31" height="31"/>
			<rect x="77" y="81" fill="#2C95DD" width="31" height="31"/>
			<rect x="113" y="81" fill="#2C95DD" width="31" height="31"/>
			<rect x="77" y="153" fill="#2C95DD" width="31" height="31"/>
			<rect x="113" y="45" fill="#2C95DD" width="31" height="31"/>
			<rect x="41" y="153" fill="#2C95DD" width="31" height="31"/>
			<rect x="5" y="153" fill="#2C95DD" width="31" height="31"/>
			<rect x="41" y="117" fill="#2C95DD" width="31" height="31"/>
			<rect x="113" y="153" fill="#2C95DD" width="31" height="31"/>
			<rect x="113" y="117" fill="#2C95DD" width="31" height="31"/>
		</g>
		<g>
			<path fill="#636363" d="M6.354,191.992h4.985v5.145H6.354V191.992z M6.474,201.582h4.744v19.398H6.474V201.582z"/>
			<path fill="#636363" d="M39.209,200.414c0,2.051-0.567,3.79-1.703,5.219c-1.135,1.428-2.89,2.486-5.263,3.175v0.088l8.746,12.085
				h-6.461l-7.998-11.382h-3.691v11.382h-5.383v-29.399h8.943c1.479,0,2.855,0.084,4.131,0.253c1.273,0.168,2.365,0.421,3.273,0.758
				c1.729,0.659,3.062,1.637,3.999,2.934C38.74,196.821,39.209,198.451,39.209,200.414z M25.498,205.094
				c1.23,0,2.274-0.055,3.131-0.164c0.857-0.11,1.578-0.275,2.165-0.494c1.083-0.41,1.834-0.971,2.252-1.682
				c0.417-0.71,0.626-1.527,0.626-2.449c0-0.791-0.165-1.491-0.494-2.099c-0.33-0.608-0.89-1.088-1.681-1.439
				c-0.514-0.234-1.158-0.406-1.934-0.517c-0.777-0.109-1.736-0.164-2.879-0.164h-3.846v9.008H25.498z"/>
			<path fill="#636363" d="M73.047,206.281c0,2.24-0.318,4.295-0.956,6.163c-0.637,1.867-1.567,3.476-2.79,4.823
				c-1.224,1.348-2.725,2.395-4.505,3.142c-1.779,0.747-3.805,1.12-6.075,1.12s-4.296-0.373-6.075-1.12
				c-1.78-0.747-3.281-1.794-4.505-3.142c-1.223-1.348-2.153-2.956-2.79-4.823c-0.638-1.868-0.956-3.923-0.956-6.163
				c0-2.242,0.318-4.296,0.956-6.164c0.637-1.867,1.567-3.475,2.79-4.822c1.224-1.348,2.725-2.396,4.505-3.143
				c1.779-0.747,3.805-1.121,6.075-1.121s4.296,0.374,6.075,1.121c1.78,0.747,3.281,1.795,4.505,3.143
				c1.223,1.348,2.153,2.955,2.79,4.822C72.729,201.985,73.047,204.039,73.047,206.281z M67.488,206.281
				c0-1.787-0.221-3.352-0.66-4.691c-0.439-1.341-1.047-2.457-1.823-3.352c-0.776-0.893-1.699-1.56-2.769-1.999
				s-2.241-0.659-3.516-0.659s-2.446,0.22-3.516,0.659s-1.992,1.106-2.769,1.999c-0.776,0.895-1.384,2.011-1.823,3.352
				c-0.439,1.34-0.66,2.904-0.66,4.691s0.221,3.351,0.66,4.69c0.439,1.341,1.047,2.454,1.823,3.34c0.776,0.887,1.699,1.553,2.769,2
				c1.069,0.446,2.241,0.67,3.516,0.67s2.446-0.224,3.516-0.67c1.069-0.447,1.992-1.113,2.769-2c0.776-0.886,1.384-1.999,1.823-3.34
				C67.268,209.632,67.488,208.068,67.488,206.281z"/>
			<path fill="#636363" d="M78.76,220.98v-29.399h7.778c0.688,0,1.388,0.022,2.099,0.065c0.71,0.045,1.402,0.11,2.076,0.198
				s1.325,0.194,1.955,0.318c0.63,0.125,1.209,0.274,1.736,0.45c1.567,0.499,2.951,1.173,4.152,2.021
				c1.201,0.851,2.209,1.854,3.021,3.011c0.813,1.157,1.429,2.45,1.846,3.878c0.418,1.429,0.627,2.978,0.627,4.647
				c0,1.582-0.176,3.065-0.527,4.449c-0.352,1.385-0.887,2.647-1.604,3.79s-1.622,2.15-2.714,3.021
				c-1.091,0.872-2.384,1.586-3.878,2.143c-1.245,0.469-2.659,0.82-4.241,1.055s-3.361,0.352-5.339,0.352H78.76z M86.362,216.477
				c3.149,0,5.61-0.433,7.383-1.297c1.567-0.776,2.754-1.904,3.56-3.384s1.209-3.369,1.209-5.669c0-1.201-0.133-2.285-0.396-3.252
				s-0.645-1.827-1.143-2.582c-0.498-0.754-1.102-1.402-1.812-1.944c-0.71-0.542-1.513-0.989-2.406-1.341
				c-0.834-0.321-1.765-0.556-2.79-0.703c-1.025-0.146-2.175-0.219-3.45-0.219h-2.373v20.391H86.362z"/>
			<path fill="#636363" d="M124.221,212.543c0-0.747-0.184-1.352-0.55-1.812c-0.366-0.462-0.864-0.839-1.494-1.132
				s-1.336-0.531-2.12-0.714c-0.783-0.184-1.607-0.363-2.472-0.539c-1.143-0.248-2.234-0.545-3.273-0.89
				c-1.041-0.344-1.956-0.82-2.747-1.428c-0.791-0.608-1.421-1.381-1.89-2.318s-0.703-2.109-0.703-3.516
				c0-1.553,0.271-2.904,0.812-4.054c0.542-1.15,1.278-2.103,2.209-2.856c0.93-0.755,2.021-1.318,3.273-1.692
				c1.253-0.373,2.662-0.561,4.23-0.561c1.566,0,3.142,0.154,4.724,0.462s2.944,0.703,4.087,1.187v4.614
				c-1.523-0.601-2.984-1.036-4.384-1.308c-1.398-0.271-2.714-0.406-3.944-0.406c-1.772,0-3.138,0.322-4.098,0.967
				c-0.959,0.645-1.439,1.611-1.439,2.9c0,0.747,0.158,1.362,0.473,1.846c0.315,0.483,0.743,0.883,1.285,1.197
				c0.542,0.315,1.165,0.568,1.868,0.758c0.703,0.191,1.45,0.367,2.241,0.527c1.245,0.264,2.436,0.568,3.57,0.912
				c1.136,0.345,2.143,0.824,3.021,1.439s1.574,1.417,2.088,2.406c0.512,0.988,0.769,2.252,0.769,3.79
				c0,1.582-0.293,2.952-0.879,4.108c-0.586,1.158-1.417,2.113-2.494,2.868c-1.076,0.754-2.384,1.314-3.922,1.681
				s-3.223,0.549-5.054,0.549c-1.597,0-3.168-0.157-4.713-0.472c-1.546-0.315-2.831-0.759-3.856-1.329v-4.549
				c1.45,0.63,2.863,1.088,4.241,1.373c1.376,0.286,2.797,0.429,4.262,0.429c0.85,0,1.685-0.069,2.506-0.209
				c0.819-0.139,1.556-0.377,2.208-0.714c0.651-0.337,1.175-0.795,1.571-1.373C124.022,214.106,124.221,213.393,124.221,212.543z"/>
		</g>
	</g>
</g>
<g id="Layer_9">
</g>
</svg>
