<?xml version="1.0" encoding="utf-8"?>
<!-- Generator: Adobe Illustrator 16.0.0, SVG Export Plug-In . SVG Version: 6.00 Build 0)  -->
<!DOCTYPE svg PUBLIC "-//W3C//DTD SVG 1.1//EN" "http://www.w3.org/Graphics/SVG/1.1/DTD/svg11.dtd">
<svg version="1.1" id="Layer_1" xmlns="http://www.w3.org/2000/svg" xmlns:xlink="http://www.w3.org/1999/xlink" x="0px" y="0px"
	 width="173.19px" height="135.24px" viewBox="0 0 173.19 135.24" enable-background="new 0 0 173.19 135.24" xml:space="preserve">
<g>
	<defs>
		<rect id="SVGID_1_" width="173.19" height="135.24"/>
	</defs>
	<clipPath id="SVGID_2_">
		<use xlink:href="#SVGID_1_"  overflow="visible"/>
	</clipPath>
	<path clip-path="url(#SVGID_2_)" d="M8.138,99.877h4.692v18.504c0,2.974-0.099,3.569-0.331,4.493
		c-0.66,2.809-3.27,4.594-5.352,5.388L5,125.88c1.188-0.726,2.247-1.849,2.676-2.774c0.363-0.825,0.462-1.751,0.462-4.229V99.877z"
		/>
	<polygon clip-path="url(#SVGID_2_)" points="15.245,99.943 27.702,99.943 27.173,103.678 19.871,103.678 19.871,108.931 
		25.718,108.931 25.718,112.697 19.871,112.697 19.871,122.842 15.245,122.842 	"/>
	<path clip-path="url(#SVGID_2_)" d="M26.646,106.585l3.965-1.058c0.396,0.694,0.628,1.455,0.694,2.412
		c0.627-0.858,1.685-1.751,2.51-2.146c0.364-0.166,0.959-0.266,1.455-0.266c0.66,0,0.957,0.066,1.652,0.364l-1.223,3.899
		c-0.429-0.231-0.792-0.33-1.289-0.33c-0.991,0-1.882,0.462-2.709,1.419v11.962h-4.428v-11.3
		C27.273,109.262,27.009,107.544,26.646,106.585"/>
	<path clip-path="url(#SVGID_2_)" d="M43.831,105.594c2.412,0,4.295,0.825,5.75,2.545c1.353,1.586,1.949,3.436,1.949,6.178
		c0,2.908-0.662,4.89-2.114,6.543c-1.29,1.454-2.975,2.345-5.585,2.345c-4.593,0-7.6-3.435-7.6-8.755
		C36.23,109.13,39.271,105.594,43.831,105.594 M43.896,108.864c-1.057,0-1.917,0.662-2.28,1.718
		c-0.297,0.894-0.462,2.082-0.462,3.768c0,1.949,0.198,3.403,0.561,4.263c0.397,0.924,1.389,1.388,2.247,1.388
		c1.917,0,2.742-1.718,2.742-5.717c0-2.279-0.297-3.767-0.891-4.526C45.384,109.196,44.688,108.864,43.896,108.864"/>
	<path clip-path="url(#SVGID_2_)" d="M68.251,104.966l1.85,2.809c-0.957,0.892-1.883,1.255-3.105,1.255
		c-0.431,0-0.596-0.033-1.157-0.099c0.66,0.794,0.99,1.651,0.99,2.776c0,2.907-2.642,5.021-6.244,5.021
		c-0.199,0-0.331,0-0.661-0.033c-1.122,0.529-1.751,0.926-1.751,1.389c0,0.231,0.264,0.396,0.728,0.396l2.378,0.033
		c2.577,0.032,3.933,0.429,5.121,1.52c0.992,0.925,1.455,2.082,1.455,3.601c0,1.422-0.43,2.513-1.356,3.503
		c-1.486,1.587-4.031,2.181-6.674,2.181c-2.412,0-4.89-0.396-6.41-1.817c-0.924-0.858-1.388-1.851-1.388-3.006
		c0-0.926,0.232-1.389,0.398-1.719h4.097c-0.134,0.363-0.2,0.495-0.2,1.09c0,1.355,1.124,2.081,3.173,2.081
		c1.256,0,2.214-0.165,2.808-0.562c0.629-0.396,1.058-1.057,1.058-1.718s-0.33-1.255-0.794-1.519
		c-0.462-0.231-1.089-0.432-2.313-0.497c-0.231,0-0.858-0.033-1.883-0.033c-1.983-0.033-3.27-0.23-4.063-0.528
		c-0.398-0.165-0.728-0.463-0.959-0.825c-0.198-0.396-0.33-0.86-0.33-1.389c0-0.627,0.165-1.155,0.528-1.553
		c0.495-0.562,1.587-1.057,2.577-1.288c-2.445-0.629-3.633-2.181-3.633-4.692c0-3.47,2.808-5.716,7.136-5.716
		c0.958,0,1.818,0.1,3.039,0.43c1.223,0.297,1.521,0.362,2.082,0.362C65.971,106.419,67.227,105.892,68.251,104.966 M59.594,108.864
		c-1.685,0-2.643,0.926-2.643,2.512c0,1.717,1.057,2.412,2.61,2.412c1.751,0,2.709-0.859,2.709-2.412
		C62.27,109.79,61.279,108.864,59.594,108.864"/>
	<path clip-path="url(#SVGID_2_)" d="M76.251,99.845h7.766c2.808,0,4.262,0.429,5.649,1.651c1.289,1.123,1.883,2.445,1.883,4.099
		c0,1.553-0.561,2.874-1.552,3.865c-0.661,0.628-1.059,0.858-2.114,1.188c3.072,0.926,4.559,2.777,4.559,5.783
		c0,3.171-1.981,6.08-6.013,6.344c-0.727,0.033-1.686,0.066-2.942,0.066h-7.236V99.845z M80.811,103.776v5.286h2.743
		c1.09,0,1.585-0.066,1.982-0.297c0.628-0.33,1.189-1.453,1.189-2.379c0-0.958-0.528-1.917-1.323-2.313
		c-0.396-0.165-0.891-0.297-1.916-0.297H80.811z M80.877,112.862v6.212h3.008c0.957,0,1.618-0.165,2.147-0.527
		c0.693-0.529,1.188-1.588,1.188-2.677c0-1.322-0.692-2.444-1.685-2.81c-0.562-0.165-0.727-0.198-1.783-0.198H80.877z"/>
	<path clip-path="url(#SVGID_2_)" d="M96.61,98.523c1.487,0,2.676,1.222,2.676,2.742s-1.222,2.742-2.742,2.742
		c-1.487,0-2.709-1.222-2.709-2.742S95.089,98.523,96.61,98.523 M94.33,106.222l4.427-0.693v17.313H94.33V106.222z"/>
	<path clip-path="url(#SVGID_2_)" d="M100.939,106.617l3.933-1.123c0.396,0.694,0.627,1.42,0.627,2.115
		c1.023-0.728,1.222-0.859,1.95-1.256c0.892-0.462,2.049-0.727,3.039-0.727c1.884,0,3.535,0.99,4.063,2.444
		c0.232,0.628,0.331,1.356,0.331,2.412v12.358h-4.362v-11.003c0-1.916-0.33-2.479-1.485-2.479c-0.894,0-2.049,0.595-3.073,1.52
		v11.962h-4.428v-12.259C101.534,109.13,101.336,107.741,100.939,106.617"/>
	<path clip-path="url(#SVGID_2_)" d="M126.253,105.892l-1.124,2.939h-2.841v8.624c0,2.148,0.396,2.71,1.916,2.71
		c0.396,0,0.793-0.099,1.587-0.33l0.561,2.644c-1.289,0.527-2.445,0.759-3.602,0.759c-2.247,0-4.064-0.99-4.56-2.478
		c-0.265-0.727-0.298-1.057-0.298-2.609v-9.319h-1.685v-2.874h1.685c0-1.652,0-2.774,0.166-4.031l4.493-1.123
		c-0.165,1.553-0.264,3.37-0.264,5.089H126.253z"/>
	<path clip-path="url(#SVGID_2_)" d="M127.346,106.585l3.965-1.058c0.396,0.694,0.627,1.455,0.693,2.412
		c0.627-0.858,1.686-1.751,2.511-2.146c0.363-0.166,0.959-0.266,1.455-0.266c0.659,0,0.957,0.066,1.651,0.364l-1.223,3.899
		c-0.429-0.231-0.792-0.33-1.289-0.33c-0.991,0-1.882,0.462-2.709,1.419v11.962h-4.428v-11.3
		C127.973,109.262,127.708,107.544,127.346,106.585"/>
	<path clip-path="url(#SVGID_2_)" d="M137.624,107.939c1.09-0.692,1.552-0.925,2.742-1.388c1.653-0.694,3.072-0.991,4.626-0.991
		c2.841,0,4.79,1.058,5.452,2.94c0.23,0.695,0.297,1.223,0.297,3.041l-0.099,5.682v0.297c0,1.818,0.298,2.513,1.587,3.471
		l-2.349,2.709c-1.022-0.43-1.948-1.189-2.378-2.05c-0.628,0.597-0.693,0.662-1.023,0.894c-0.827,0.595-2.017,0.925-3.404,0.925
		c-3.768,0-5.814-1.917-5.814-5.286c0-3.965,2.742-5.815,8.127-5.815c0.332,0,0.53,0,0.992,0.032v-0.692
		c0-1.884-0.362-2.511-1.982-2.511c-1.421,0-3.073,0.692-4.89,1.914L137.624,107.939z M146.314,115.44h-0.198
		c-3.074,0-4.13,0.562-4.13,2.577c0,1.321,0.825,2.214,1.949,2.214c0.825,0,1.65-0.43,2.312-1.157L146.314,115.44z"/>
	<path clip-path="url(#SVGID_2_)" d="M151.438,106.222l4.526-0.528l2.942,9.847c0.297,1.023,0.892,3.501,0.892,3.501
		s0.33-1.884,0.528-2.709c0.264-1.058,0.33-1.223,0.662-2.346l2.544-8.029h4.657l-6.146,17.148
		c-1.157,3.271-2.015,4.691-3.237,5.585c-1.124,0.825-2.578,1.354-4.097,1.552l-1.521-2.907c0.958-0.265,2.082-0.66,2.742-1.123
		c0.496-0.364,0.894-0.826,1.257-1.388c0.43-0.694,0.562-0.992,0.957-1.982h-1.122c-0.265-0.792-0.397-1.124-0.694-1.983
		c-0.331-1.023-0.859-2.708-0.893-2.775L151.438,106.222z"/>
	<rect x="56.434" y="76.815" clip-path="url(#SVGID_2_)" width="60.321" height="5.379"/>
	<polygon clip-path="url(#SVGID_2_)" points="99.526,30.757 99.526,36.136 107.512,36.136 89.354,54.294 89.354,15.363 
		94.977,20.985 98.779,17.182 86.595,4.998 74.413,17.182 78.216,20.985 83.975,15.225 83.975,54.294 65.816,36.136 73.665,36.136 
		73.665,30.757 56.434,30.757 56.434,47.988 61.813,47.988 61.813,39.739 86.664,64.59 111.376,39.877 111.376,47.988 
		116.755,47.988 116.755,30.757 	"/>
</g>
</svg>
