<?xml version="1.0" encoding="utf-8"?>
<!-- Generator: Adobe Illustrator 16.0.0, SVG Export Plug-In . SVG Version: 6.00 Build 0)  -->
<!DOCTYPE svg PUBLIC "-//W3C//DTD SVG 1.1//EN" "http://www.w3.org/Graphics/SVG/1.1/DTD/svg11.dtd">
<svg version="1.1" xmlns="http://www.w3.org/2000/svg" xmlns:xlink="http://www.w3.org/1999/xlink" x="0px" y="0px"
	 width="191.977px" height="191.976px" viewBox="0 0 191.977 191.976" enable-background="new 0 0 191.977 191.976"
	 xml:space="preserve">
<g id="Layer_1">
</g>
<g id="draft">
	<g>
		<circle fill="#2C95DD" cx="95.988" cy="95.988" r="95.988"/>
		<path fill="#FFFFFF" d="M130.523,83.299l-3.064,1.838c-0.488,4.939-3.192,10.237-7.916,10.235
			c-5.24-0.002-11.166-3.838-12.495-10.632c-2.318-11.844,6.715-12.555,10.504-11.536c0.657,0.176,1.271,0.355,1.845,0.536
			l4.061-2.436l-13.736-23.316L76.18,68.128l-2.273-3.785c0.181-0.574,0.359-1.187,0.535-1.845
			c1.018-3.789,0.304-12.822-11.54-10.499c-6.793,1.333-10.626,7.26-10.626,12.499c0,4.724,5.298,7.426,10.237,7.913l1.731,2.884
			l-14.687,8.819l14.331,24.326l-4.229,2.588c-0.48-0.196-1.028-0.369-1.614-0.541c-3.765-1.104-12.812-0.6-10.764,11.294
			c1.175,6.822,7.012,10.792,12.249,10.914c4.793,0.111,8.033-4.958,8.278-10.176l2.998-2.333l14.021,23.801l24.893-14.947
			l-2.346-3.076c-5.217-0.294-10.254-3.583-10.097-8.375c0.171-5.236,4.196-11.035,11.03-12.145
			c11.913-1.934,12.331,7.117,11.19,10.871c-0.177,0.584-0.355,1.13-0.556,1.609l2.457,4.102l23.592-14.166L130.523,83.299z"/>
	</g>
</g>
</svg>
