<?xml version="1.0" encoding="utf-8"?>
<!-- Generator: Adobe Illustrator 16.0.0, SVG Export Plug-In . SVG Version: 6.00 Build 0)  -->
<!DOCTYPE svg PUBLIC "-//W3C//DTD SVG 1.1//EN" "http://www.w3.org/Graphics/SVG/1.1/DTD/svg11.dtd">
<svg version="1.1" xmlns="http://www.w3.org/2000/svg" xmlns:xlink="http://www.w3.org/1999/xlink" x="0px" y="0px" width="152px"
	 height="153px" viewBox="0 0 152 153" enable-background="new 0 0 152 153" xml:space="preserve">
<g id="mlx">
	<rect id="bg_3_" fill="#2C95DD" width="152" height="153"/>
	<g id="logo_x5F_square_x5F_blue-bg">
		<g id="op3_1_" display="none">
		</g>
		<g id="op4_1_" display="none">
		</g>
		<g id="op2_1_" display="none">
		</g>
		<g id="op1_1_">
			<g id="m">
			</g>
		</g>
	</g>
	<g id="favicon_x5F_square_x5F_blue_x5F_bg">
	</g>
	<g>
		<path fill="#FFFFFF" d="M27.423,63.404V59.66h4.544v3.744H27.423z M31.967,65.964v16.544h-4.544V65.964H31.967z"/>
		<path fill="#FFFFFF" d="M48.351,59.66c1.023,0,1.946,0.165,2.768,0.496c0.821,0.33,1.525,0.783,2.112,1.359
			c0.586,0.576,1.034,1.243,1.344,2c0.309,0.758,0.464,1.573,0.464,2.448c0,1.344-0.283,2.507-0.848,3.488
			c-0.565,0.981-1.488,1.728-2.769,2.239v0.064c0.619,0.171,1.131,0.432,1.536,0.784c0.405,0.352,0.736,0.768,0.992,1.248
			c0.256,0.479,0.442,1.008,0.561,1.584c0.116,0.576,0.196,1.151,0.239,1.728c0.021,0.363,0.043,0.79,0.064,1.28
			c0.021,0.491,0.059,0.992,0.111,1.504c0.054,0.512,0.139,0.997,0.257,1.456c0.116,0.459,0.293,0.848,0.527,1.168h-5.023
			c-0.277-0.725-0.448-1.589-0.513-2.592c-0.063-1.003-0.159-1.963-0.287-2.88c-0.172-1.194-0.534-2.069-1.089-2.624
			s-1.461-0.832-2.72-0.832h-5.023v8.928H36.03V59.66H48.351z M46.559,69.996c1.151,0,2.016-0.256,2.592-0.769
			c0.576-0.512,0.864-1.344,0.864-2.496c0-1.108-0.288-1.914-0.864-2.416c-0.576-0.501-1.44-0.752-2.592-0.752h-5.504v6.433H46.559z
			"/>
		<path fill="#FFFFFF" d="M58.91,66.428c0.512-1.461,1.248-2.736,2.208-3.824s2.138-1.94,3.535-2.56
			c1.397-0.618,2.971-0.928,4.721-0.928c1.771,0,3.349,0.31,4.735,0.928c1.387,0.619,2.561,1.472,3.521,2.56
			s1.696,2.363,2.208,3.824c0.512,1.462,0.768,3.046,0.768,4.752c0,1.664-0.256,3.216-0.768,4.656
			c-0.512,1.439-1.248,2.693-2.208,3.76c-0.96,1.067-2.134,1.904-3.521,2.512c-1.387,0.608-2.965,0.912-4.735,0.912
			c-1.75,0-3.323-0.304-4.721-0.912c-1.397-0.607-2.575-1.444-3.535-2.512c-0.96-1.066-1.696-2.32-2.208-3.76
			c-0.513-1.44-0.769-2.992-0.769-4.656C58.142,69.474,58.397,67.89,58.91,66.428z M63.502,73.979
			c0.224,0.907,0.581,1.724,1.072,2.448c0.49,0.726,1.13,1.307,1.92,1.744c0.789,0.438,1.749,0.656,2.88,0.656
			c1.13,0,2.09-0.219,2.88-0.656c0.789-0.438,1.429-1.019,1.92-1.744c0.49-0.725,0.848-1.541,1.072-2.448
			c0.224-0.906,0.336-1.84,0.336-2.8c0-1.002-0.112-1.973-0.336-2.912c-0.225-0.938-0.582-1.775-1.072-2.512
			c-0.491-0.736-1.131-1.322-1.92-1.76c-0.79-0.438-1.75-0.656-2.88-0.656c-1.131,0-2.091,0.219-2.88,0.656
			c-0.79,0.438-1.43,1.023-1.92,1.76c-0.491,0.736-0.849,1.573-1.072,2.512c-0.225,0.939-0.336,1.91-0.336,2.912
			C63.166,72.14,63.277,73.073,63.502,73.979z"/>
		<path fill="#FFFFFF" d="M93.886,59.66c1.472,0,2.842,0.234,4.111,0.704c1.27,0.469,2.368,1.173,3.296,2.111
			c0.929,0.939,1.653,2.112,2.177,3.521c0.522,1.408,0.783,3.062,0.783,4.96c0,1.664-0.213,3.2-0.64,4.607
			c-0.427,1.408-1.072,2.624-1.936,3.648c-0.864,1.023-1.942,1.829-3.232,2.416c-1.291,0.587-2.811,0.88-4.56,0.88h-9.856V59.66
			H93.886z M93.533,78.284c0.725,0,1.429-0.117,2.112-0.353c0.683-0.234,1.29-0.624,1.824-1.168c0.532-0.544,0.96-1.253,1.279-2.128
			c0.32-0.874,0.48-1.941,0.48-3.2c0-1.151-0.112-2.191-0.336-3.12c-0.225-0.928-0.592-1.722-1.104-2.384
			c-0.512-0.661-1.189-1.168-2.032-1.52c-0.843-0.353-1.883-0.528-3.119-0.528h-3.584v14.4H93.533z"/>
		<path fill="#FFFFFF" d="M111.581,76.876c0.277,0.533,0.646,0.966,1.104,1.296c0.458,0.331,0.997,0.576,1.615,0.736
			c0.619,0.159,1.259,0.239,1.921,0.239c0.447,0,0.928-0.037,1.439-0.111c0.512-0.075,0.992-0.219,1.44-0.433
			c0.447-0.213,0.82-0.506,1.12-0.88c0.298-0.373,0.447-0.848,0.447-1.424c0-0.618-0.197-1.12-0.592-1.504s-0.912-0.704-1.552-0.96
			c-0.641-0.256-1.365-0.48-2.176-0.672c-0.812-0.192-1.633-0.405-2.465-0.641c-0.854-0.213-1.686-0.475-2.495-0.783
			c-0.812-0.31-1.536-0.709-2.177-1.2c-0.64-0.491-1.157-1.104-1.552-1.84c-0.395-0.736-0.592-1.627-0.592-2.673
			c0-1.173,0.25-2.191,0.752-3.056c0.501-0.864,1.157-1.584,1.968-2.16s1.729-1.002,2.752-1.279
			c1.024-0.277,2.048-0.416,3.072-0.416c1.194,0,2.341,0.133,3.439,0.399c1.099,0.268,2.075,0.699,2.929,1.296
			c0.853,0.598,1.53,1.36,2.032,2.288c0.501,0.928,0.752,2.054,0.752,3.376h-4.864c-0.043-0.683-0.188-1.248-0.433-1.695
			c-0.245-0.448-0.57-0.801-0.976-1.057s-0.869-0.437-1.392-0.544c-0.523-0.106-1.094-0.16-1.712-0.16
			c-0.406,0-0.812,0.043-1.217,0.128c-0.405,0.086-0.773,0.235-1.104,0.448c-0.331,0.214-0.604,0.48-0.816,0.8
			c-0.213,0.32-0.319,0.726-0.319,1.216c0,0.448,0.085,0.812,0.256,1.089c0.17,0.277,0.506,0.533,1.008,0.768
			c0.501,0.235,1.194,0.47,2.08,0.704c0.885,0.235,2.042,0.533,3.472,0.896c0.427,0.086,1.019,0.24,1.776,0.465
			c0.757,0.224,1.509,0.581,2.256,1.071c0.746,0.491,1.392,1.147,1.936,1.969s0.816,1.871,0.816,3.151
			c0,1.046-0.203,2.017-0.608,2.912c-0.405,0.896-1.008,1.67-1.808,2.32s-1.792,1.157-2.976,1.52
			c-1.185,0.362-2.556,0.544-4.112,0.544c-1.259,0-2.48-0.154-3.664-0.464c-1.184-0.309-2.229-0.794-3.136-1.456
			c-0.907-0.661-1.627-1.504-2.16-2.527c-0.533-1.024-0.79-2.24-0.769-3.648h4.864C111.165,75.691,111.304,76.343,111.581,76.876z"
			/>
	</g>
</g>
<g id="Layer_9">
</g>
</svg>
