<?xml version="1.0" encoding="utf-8"?>
<!-- Generator: Adobe Illustrator 16.0.0, SVG Export Plug-In . SVG Version: 6.00 Build 0)  -->
<!DOCTYPE svg PUBLIC "-//W3C//DTD SVG 1.1//EN" "http://www.w3.org/Graphics/SVG/1.1/DTD/svg11.dtd">
<svg version="1.1" xmlns="http://www.w3.org/2000/svg" xmlns:xlink="http://www.w3.org/1999/xlink" x="0px" y="0px" width="152px"
	 height="153px" viewBox="0 0 152 153" enable-background="new 0 0 152 153" xml:space="preserve">
<g id="mlx">
	<rect id="bg_9_" fill="#2C95DD" width="152" height="153"/>
	<g>
		<g id="m_1_">
			<path fill="#FFFFFF" d="M129.467,61.318c-1.172-2.712-2.988-4.909-5.671-6.591c-2.685-1.683-5.733-2.525-9.267-2.525
				c-3.414,0-6.533,0.781-9.414,2.338c-2.881,1.56-5.3,3.834-7.281,6.825c-1.523-2.991-3.525-5.266-6.027-6.825
				c-2.5-1.557-5.301-2.338-8.409-2.338c-3.079,0-6.527,0.594-9.135,1.777C71.836,55.081,69,56.735,67,58.892V65h6.586
				c1.495-1,3.121-1.307,4.895-1.307c1.863,0,3.449,0.551,4.765,1.547c1.312,0.998,2.207,2.544,2.862,4.586
				C86.764,71.868,87,75.188,87,79.737V104h12V81.419c0-4.86,0.786-8.39,1.606-10.587c0.824-2.197,2.268-3.919,3.957-5.165
				c1.69-1.247,3.694-1.87,5.827-1.87c2.801,0,5.005,1.02,6.407,3.062C118.197,68.9,119,72.803,119,78.568V104h12V74.548
				C131,68.441,130.641,64.03,129.467,61.318z"/>
			<path fill="#FFFFFF" d="M67,67v7.53c0-1.38,1.068-2.788,1.414-3.726C68.936,69.4,70.244,68,71.087,67H67z"/>
		</g>
		<g id="blocks_9_">
			<rect x="44" y="80" fill="#FFFFFF" width="11" height="11"/>
			<rect x="44" y="67" fill="#FFFFFF" width="11" height="11"/>
			<rect x="57" y="67" fill="#FFFFFF" width="10" height="11"/>
			<rect x="44" y="93" fill="#FFFFFF" width="11" height="11"/>
			<rect x="57" y="54" fill="#FFFFFF" width="10" height="11"/>
			<rect x="31" y="93" fill="#FFFFFF" width="11" height="11"/>
			<rect x="19" y="93" fill="#FFFFFF" width="10" height="11"/>
			<rect x="31" y="80" fill="#FFFFFF" width="11" height="11"/>
			<rect x="57" y="93" fill="#FFFFFF" width="10" height="11"/>
			<rect x="57" y="80" fill="#FFFFFF" width="10" height="11"/>
		</g>
	</g>
	<g id="logo_x5F_square_x5F_blue-bg">
		<g id="op3_1_" display="none">
		</g>
		<g id="op4_1_" display="none">
		</g>
		<g id="op2_1_" display="none">
		</g>
		<g id="op1_1_">
			<g id="m">
			</g>
		</g>
	</g>
	<g id="favicon_x5F_square_x5F_blue_x5F_bg">
	</g>
</g>
<g id="Layer_9">
</g>
</svg>
