<?xml version="1.0" encoding="utf-8"?>
<!-- Generator: Adobe Illustrator 16.0.0, SVG Export Plug-In . SVG Version: 6.00 Build 0)  -->
<!DOCTYPE svg PUBLIC "-//W3C//DTD SVG 1.1//EN" "http://www.w3.org/Graphics/SVG/1.1/DTD/svg11.dtd">
<svg version="1.1" xmlns="http://www.w3.org/2000/svg" xmlns:xlink="http://www.w3.org/1999/xlink" x="0px" y="0px"
	 width="182.521px" height="33px" viewBox="0 0 182.521 33" enable-background="new 0 0 182.521 33" xml:space="preserve">
<g id="mlx">
	<g id="logo_x5F_square_x5F_blue-bg">
		<g id="op3_1_" display="none">
		</g>
		<g id="op4_1_" display="none">
		</g>
		<g id="op2_1_" display="none">
		</g>
		<g id="op1_1_">
			<g id="m">
			</g>
			<g>
				<g id="blocks_1_">
					<rect x="12" y="21.199" fill="#FFFFFF" width="5" height="5"/>
					<rect x="12" y="15.199" fill="#FFFFFF" width="5" height="5"/>
					<rect x="18" y="15.199" fill="#FFFFFF" width="5" height="5"/>
					<rect x="12" y="27.199" fill="#FFFFFF" width="5" height="5"/>
					<rect x="18" y="9.199" fill="#FFFFFF" width="5" height="5"/>
					<rect x="6" y="27.199" fill="#FFFFFF" width="5" height="5"/>
					<rect y="27.199" fill="#FFFFFF" width="5" height="5"/>
					<rect x="6" y="21.199" fill="#FFFFFF" width="5" height="5"/>
					<rect x="18" y="27.199" fill="#FFFFFF" width="5" height="5"/>
					<rect x="18" y="21.199" fill="#FFFFFF" width="5" height="5"/>
				</g>
				<path fill="#FFFFFF" d="M81.566,22.408H62.725c0.271,1.662,0.999,2.983,2.181,3.964c1.182,0.981,2.688,1.472,4.522,1.472
					c2.191,0,4.074-0.766,5.65-2.299l4.941,2.32c-1.232,1.748-2.707,3.04-4.426,3.878S71.834,33,69.471,33
					c-3.667,0-6.653-1.156-8.959-3.47c-2.307-2.313-3.459-5.21-3.459-8.69c0-3.566,1.149-6.527,3.448-8.884
					C62.8,9.6,65.682,8.422,69.148,8.422c3.681,0,6.674,1.178,8.98,3.534c2.306,2.356,3.459,5.468,3.459,9.335L81.566,22.408z
					 M75.701,17.789c-0.388-1.303-1.151-2.363-2.292-3.18s-2.464-1.225-3.971-1.225c-1.636,0-3.07,0.458-4.304,1.375
					c-0.775,0.573-1.492,1.583-2.152,3.029H75.701z"/>
				<path fill="#FFFFFF" d="M87.023,0.408h5.865v8.615h3.48v5.049h-3.48v18.326h-5.865V14.072h-3.008V9.023h3.008V0.408z"/>
				<path fill="#FFFFFF" d="M116.758,9.023h5.865v23.375h-5.865v-2.471c-1.145,1.089-2.293,1.873-3.444,2.353S110.914,33,109.569,33
					c-3.019,0-5.63-1.171-7.833-3.513s-3.305-5.253-3.305-8.733c0-3.609,1.065-6.567,3.197-8.873
					c2.132-2.306,4.721-3.459,7.769-3.459c1.401,0,2.718,0.265,3.948,0.795c1.23,0.53,2.367,1.325,3.412,2.385V9.023z
					 M110.592,13.836c-1.812,0-3.318,0.641-4.518,1.923c-1.199,1.282-1.799,2.926-1.799,4.931c0,2.02,0.61,3.681,1.83,4.984
					c1.221,1.304,2.724,1.955,4.508,1.955c1.842,0,3.369-0.641,4.582-1.923c1.213-1.282,1.82-2.961,1.82-5.038
					c0-2.034-0.607-3.681-1.82-4.941C113.982,14.466,112.448,13.836,110.592,13.836z"/>
				<path fill="#FFFFFF" d="M128.488,0h3.008v32.398h-3.008V0z"/>
				<path fill="#FFFFFF" d="M137.748,9.023h3.008v4.189c1.203-1.604,2.535-2.804,3.996-3.599s3.051-1.192,4.77-1.192
					c1.747,0,3.298,0.444,4.651,1.332c1.354,0.888,2.353,2.084,2.997,3.588s0.967,3.846,0.967,7.025v12.031h-3.008v-11.15
					c0-2.692-0.111-4.49-0.335-5.393c-0.349-1.547-1.017-2.71-2.005-3.491c-0.988-0.78-2.278-1.171-3.868-1.171
					c-1.819,0-3.449,0.602-4.889,1.805s-2.389,2.693-2.847,4.469c-0.287,1.16-0.43,3.28-0.43,6.359v8.572h-3.008V9.023z"/>
				<path fill="#FFFFFF" d="M161.918,9.023h3.609l6.217,8.551l6.151-8.551h3.616l-7.956,11.042l8.966,12.333h-3.663l-7.115-9.817
					l-7.073,9.817h-3.59l8.856-12.311L161.918,9.023z"/>
				<g>
					<path fill="#FFFFFF" d="M51.953,12.412c-0.552-1.246-1.568-2.256-2.83-3.029s-2.777-1.16-4.439-1.16
						c-1.605,0-3.112,0.358-4.467,1.074c-1.354,0.716-2.512,1.762-3.443,3.137c-0.717-1.375-1.669-2.42-2.845-3.137
						c-1.176-0.716-2.498-1.074-3.959-1.074c-1.448,0-2.699,0.272-3.925,0.816C24.903,9.546,24,10.306,23,11.296v2.903h2.351
						c0.703-0.423,1.468-0.648,2.302-0.648c0.876,0,1.622,0.229,2.24,0.688c0.617,0.458,1.208,1.157,1.517,2.095
						C31.718,17.271,32,18.786,32,20.877v11.322h6V21.65c0-2.234,0.02-3.856,0.406-4.866s0.891-1.801,1.686-2.374
						c0.795-0.573,1.649-0.859,2.652-0.859c1.317,0,2.457,0.469,3.116,1.407C46.519,15.896,47,17.69,47,20.34v11.859h6V18.492
						C53,15.685,52.505,13.658,51.953,12.412z"/>
					<path fill="#FFFFFF" d="M23,15.199v3.286c0-0.635,0.129-1.194,0.292-1.625c0.244-0.646,0.487-1.192,0.884-1.66H23z"/>
				</g>
			</g>
		</g>
	</g>
	<g id="favicon_x5F_square_x5F_blue_x5F_bg">
	</g>
</g>
<g id="Layer_9">
</g>
</svg>
