<?xml version="1.0" encoding="utf-8"?>
<!-- Generator: Adobe Illustrator 16.0.0, SVG Export Plug-In . SVG Version: 6.00 Build 0)  -->
<!DOCTYPE svg PUBLIC "-//W3C//DTD SVG 1.1//EN" "http://www.w3.org/Graphics/SVG/1.1/DTD/svg11.dtd">
<svg version="1.1" id="Layer_1" xmlns="http://www.w3.org/2000/svg" xmlns:xlink="http://www.w3.org/1999/xlink" x="0px" y="0px"
	 width="615.414px" height="110.62px" viewBox="0 0 615.414 110.62" enable-background="new 0 0 615.414 110.62"
	 xml:space="preserve">
<g>
	<path fill-rule="evenodd" clip-rule="evenodd" fill="#017DB8" d="M0,7.427c12.92,0,25.843-0.183,38.759,0.043
		c18.128,0.317,31.812,8.554,41.169,24.022c2.115,3.496,3.543,7.306,4.685,11.424c1.816-1.407,3.546-2.737,5.266-4.081
		c15.876-12.405,31.754-24.809,47.613-37.236c0.683-0.535,1.097-0.547,1.785,0c4.539,3.605,9.105,7.177,13.699,10.712
		c0.752,0.579,0.646,0.835-0.021,1.354c-16.487,12.858-32.961,25.732-49.438,38.604c-0.126,0.098-0.25,0.203-0.386,0.283
		c-0.797,0.47-0.819,0.849-0.029,1.444c2.68,2.023,5.291,4.138,7.96,6.174c0.879,0.67,1.678,1.917,2.68,1.828
		c0.909-0.08,1.737-1.166,2.586-1.828c16.036-12.525,32.07-25.053,48.104-37.581c0.43-0.336,0.753-0.752,1.415-0.229
		c4.824,3.825,9.68,7.608,14.525,11.407c0.061,0.048,0.099,0.123,0.224,0.282c-17.128,13.383-34.255,26.767-51.478,40.224
		c2.273,1.779,4.47,3.499,6.667,5.217c1.323,1.034,2.688,2.02,3.954,3.118c0.67,0.582,1.081,0.458,1.715-0.039
		c11.735-9.2,23.488-18.376,35.238-27.557c4.851-3.79,9.692-7.594,14.566-11.354c0.646-0.499,0.865-1.015,0.863-1.806
		c-0.022-11.04-0.002-22.08-0.038-33.12c-0.003-1.008,0.173-1.35,1.286-1.339c6.359,0.063,12.72,0.057,19.079,0.006
		c1.077-0.009,1.381,0.244,1.379,1.36C213.793,33.2,213.8,57.64,213.806,82.08c0,1.729-0.235,1.529,1.523,1.53
		c12.28,0.006,24.56,0.021,36.84-0.025c1.186-0.005,1.445,0.331,1.432,1.468c-0.061,5.439-0.042,10.88-0.012,16.319
		c0.005,0.864-0.113,1.256-1.15,1.254c-19.72-0.034-39.439-0.032-59.16-0.004c-0.964,0.002-1.194-0.282-1.192-1.213
		c0.031-10.76,0.02-21.52,0.02-32.279c0-0.28,0.025-0.563-0.007-0.839c-0.035-0.297,0.172-0.707-0.184-0.863
		c-0.341-0.15-0.554,0.236-0.789,0.419c-5.678,4.422-11.348,8.853-17.018,13.282c-11.624,9.083-23.254,18.157-34.854,27.271
		c-0.742,0.582-1.146,0.448-1.799-0.063c-17.25-13.505-34.515-26.989-51.779-40.476c-1.06-0.828-1.028-0.812-1.433,0.418
		c-6.327,19.209-19.48,30.498-39.405,33.887c-2.247,0.382-4.538,0.424-6.815,0.427c-12.24,0.019-24.48,0.008-36.72,0.014
		c-0.435,0-0.869,0.066-1.303,0.102C0,70.947,0,39.187,0,7.427z M21.601,54.977c0,9.154,0.013,18.309-0.021,27.462
		c-0.003,0.923,0.215,1.207,1.174,1.197c5.196-0.049,10.393-0.011,15.59-0.026c6.348-0.019,11.882-2.205,16.565-6.453
		c11.502-10.433,12.829-29.328,2.904-41.283c-5.229-6.297-11.879-9.615-20.164-9.5c-4.876,0.068-9.754,0.049-14.63-0.016
		c-1.112-0.015-1.459,0.194-1.452,1.396C21.628,36.829,21.601,45.903,21.601,54.977z"/>
	<path fill-rule="evenodd" clip-rule="evenodd" fill="#818181" d="M422.604,54.955c0-14.999,0-29.998,0.001-44.997
		c0-1.767,0.755-2.531,2.499-2.532c2.279-0.001,4.566,0.104,6.838-0.034c1.749-0.106,2.643,0.74,3.258,2.183
		c3.082,7.237,6.172,14.47,9.256,21.706c8.406,19.724,16.811,39.451,25.227,59.17c0.215,0.5,0.238,1.183,1.107,1.2
		c0.937,0.02,0.969-0.721,1.195-1.254c9.326-21.85,18.636-43.706,27.949-65.561c2.145-5.032,4.305-10.057,6.434-15.096
		c0.669-1.583,1.637-2.479,3.527-2.351c2.229,0.151,4.477,0.035,6.717,0.036c1.688,0.001,2.475,0.773,2.475,2.436
		c0.002,7.08,0.001,14.159,0.002,21.238c0,22.919,0,45.837,0,68.755c0,1.979-0.805,2.768-2.822,2.769c-0.92,0-1.84,0-2.76,0
		c-1.793-0.002-2.703-0.899-2.703-2.675c0-25.157,0-50.315,0-75.474c0-0.28,0.035-0.565-0.009-0.838
		c-0.067-0.416,0.278-1.016-0.474-1.158c-0.662-0.124-0.89,0.274-1.116,0.807c-1.485,3.49-3.006,6.965-4.508,10.448
		c-9.564,22.183-19.129,44.364-28.689,66.549c-0.673,1.561-1.642,2.573-3.538,2.364c-1.106-0.123-2.248-0.123-3.354,0
		c-1.86,0.206-2.825-0.842-3.466-2.318c-3.778-8.721-7.527-17.453-11.287-26.182c-7.283-16.904-14.567-33.808-21.856-50.71
		c-0.179-0.415-0.227-0.961-0.888-0.974c-0.5-0.01-0.877,0.043-0.82,0.689c0.03,0.357,0.003,0.719,0.003,1.08
		c0,25.239,0,50.476,0,75.715c0,1.778-0.899,2.675-2.686,2.677c-1,0.001-2,0.002-3,0.001c-1.724-0.003-2.511-0.801-2.511-2.553
		C422.604,85.033,422.604,69.994,422.604,54.955z"/>
	<path fill-rule="evenodd" clip-rule="evenodd" fill="#017DB8" d="M260.841,54.955c0-15.397,0.012-30.793-0.026-46.19
		c-0.002-1.091,0.269-1.375,1.364-1.365c6.318,0.056,12.637,0.053,18.956,0.002c1.067-0.008,1.375,0.232,1.373,1.348
		c-0.036,24.475-0.016,48.95-0.062,73.426c-0.002,1.268,0.373,1.468,1.523,1.464c12.317-0.041,24.635-0.012,36.953-0.05
		c1.091-0.003,1.399,0.271,1.388,1.382c-0.061,5.518-0.043,11.037-0.01,16.556c0.005,0.823-0.207,1.092-1.061,1.091
		c-19.797-0.021-39.592-0.025-59.388,0.009c-1.061,0.002-1.019-0.505-1.018-1.24C260.843,85.909,260.841,70.432,260.841,54.955z"/>
	<path fill-rule="evenodd" clip-rule="evenodd" fill="#818181" d="M343.712,54.95c0-14.957,0-29.914,0-44.871
		c0-1.893,0.761-2.653,2.652-2.653c18.676,0,37.352,0,56.027,0c1.838,0,2.521,0.672,2.523,2.479c0.001,0.64,0.002,1.28,0,1.92
		c-0.003,1.644-0.829,2.478-2.463,2.478c-15.957,0.001-31.913,0-47.869,0c-1.885,0-2.586,0.694-2.586,2.56
		c-0.001,10.478-0.001,20.956,0,31.433c0,1.809,0.772,2.569,2.605,2.569c15.037,0,30.074,0,45.11,0c1.741,0,2.526,0.784,2.528,2.52
		c0,0.56,0,1.119,0,1.68c-0.001,1.892-0.775,2.678-2.648,2.678c-14.956,0.001-29.913,0-44.869,0c-1.985,0-2.727,0.737-2.727,2.712
		c0,10.878,0,21.755,0,32.633c0,1.877,0.764,2.624,2.681,2.624c15.876,0,31.753,0,47.63,0c1.945,0,2.606,0.676,2.607,2.658
		c0,0.68,0.007,1.359-0.001,2.039c-0.015,1.304-0.925,2.212-2.246,2.213c-18.836,0.003-37.672,0.003-56.508,0
		c-1.489,0-2.447-1.01-2.447-2.562C343.712,85.023,343.712,69.986,343.712,54.95z"/>
	<path fill-rule="evenodd" clip-rule="evenodd" fill="#818181" d="M543.553,54.955c0.021,8.116,1.152,16.024,4.823,23.365
		c6.092,12.182,16.082,18.312,29.635,18.701c5.539,0.159,10.932-0.595,15.93-3.159c7.125-3.655,10.932-9.79,12.834-17.337
		c0.304-1.201,0.21-2.601,1.427-3.438c0.097-0.066,0.157-0.205,0.26-0.244c1.7-0.65,3.466-0.153,5.198-0.277
		c0.793-0.058,1.082,0.735,1.599,1.143c0.396,0.312,0.214,0.709,0.156,1.104c-2.134,14.801-11.239,24.803-25.917,27.963
		c-12.099,2.605-23.697,1.195-34.314-5.568c-8.329-5.306-13.672-12.951-16.814-22.205c-1.913-5.635-2.775-11.452-2.988-17.401
		c-0.297-8.272,0.539-16.387,3.538-24.126c6.036-15.577,17.326-24.764,33.958-27.014c9.188-1.243,18.125-0.138,26.424,4.236
		c9.383,4.945,14.479,12.961,16.135,23.305c0.137,0.855-0.809,1.953-1.744,1.976c-1.479,0.036-2.967,0.099-4.438-0.018
		c-1.199-0.096-1.82-0.973-2.086-2.115c-1.148-4.95-3.161-9.463-6.766-13.146c-3.917-4.002-8.764-6.203-14.213-7.141
		c-7.825-1.348-15.46-0.786-22.699,2.695c-8.559,4.115-13.874,11.074-16.994,19.857C544.333,42.198,543.533,48.514,543.553,54.955z"
		/>
</g>
</svg>
